<mxfile host="app.diagrams.net" modified="2024-07-03T08:07:58.608Z" agent="Mozilla/5.0 (Windows NT 10.0; Win64; x64) AppleWebKit/537.36 (KHTML, like Gecko) Chrome/126.0.0.0 Safari/537.36" etag="K4z8UDzIB9q2XuvlQ8Xf" version="24.6.4" type="github">
  <diagram name="Page-1" id="2QyqYy-X_fP3DlGpqI5O">
    <mxGraphModel dx="2261" dy="1907" grid="0" gridSize="10" guides="1" tooltips="1" connect="1" arrows="1" fold="1" page="1" pageScale="1" pageWidth="827" pageHeight="1169" math="0" shadow="0">
      <root>
        <mxCell id="0" />
        <mxCell id="1" parent="0" />
        <mxCell id="IKeYPCFc28aPn8fqbqxN-5" value="Database:&lt;b&gt; Planetscale&lt;/b&gt;&lt;br style=&quot;border-color: var(--border-color);&quot;&gt;&lt;br style=&quot;border-color: var(--border-color);&quot;&gt;https://app.planetscale.com/&lt;br style=&quot;border-color: var(--border-color);&quot;&gt;zamaqo/zamaqodb/&lt;br style=&quot;border-color: var(--border-color);&quot;&gt;chemcheck" style="shape=datastore;whiteSpace=wrap;html=1;fillColor=#dae8fc;strokeColor=#6c8ebf;" parent="1" vertex="1">
          <mxGeometry x="-446" y="225" width="177.5" height="107" as="geometry" />
        </mxCell>
        <mxCell id="IKeYPCFc28aPn8fqbqxN-6" value="Web application hosted on Vercel" style="swimlane;startSize=20;horizontal=1;containerType=tree;newEdgeStyle={&quot;edgeStyle&quot;:&quot;elbowEdgeStyle&quot;,&quot;startArrow&quot;:&quot;none&quot;,&quot;endArrow&quot;:&quot;none&quot;};" parent="1" vertex="1">
          <mxGeometry x="-81" y="185" width="400" height="348" as="geometry">
            <mxRectangle x="136" y="531" width="252" height="26" as="alternateBounds" />
          </mxGeometry>
        </mxCell>
        <mxCell id="GP17z3KrqyDmhMHzSGXm-17" value="URL: Chemcheck.zamaqo.com&lt;div&gt;&lt;br&gt;&lt;/div&gt;" style="rounded=0;whiteSpace=wrap;html=1;" parent="IKeYPCFc28aPn8fqbqxN-6" vertex="1">
          <mxGeometry x="41" y="31" width="323" height="36" as="geometry" />
        </mxCell>
        <mxCell id="IKeYPCFc28aPn8fqbqxN-18" value="" style="group;fillColor=#d5e8d4;strokeColor=#82b366;" parent="1" vertex="1" connectable="0">
          <mxGeometry x="-272" y="13" width="548" height="67" as="geometry" />
        </mxCell>
        <mxCell id="IKeYPCFc28aPn8fqbqxN-3" value="" style="shape=hexagon;perimeter=hexagonPerimeter2;whiteSpace=wrap;html=1;fixedSize=1;size=15;" parent="IKeYPCFc28aPn8fqbqxN-18" vertex="1">
          <mxGeometry y="26" width="548" height="41" as="geometry" />
        </mxCell>
        <mxCell id="IKeYPCFc28aPn8fqbqxN-17" value="Authentication providor" style="text;html=1;align=center;verticalAlign=middle;resizable=0;points=[];autosize=1;strokeColor=none;fillColor=none;" parent="IKeYPCFc28aPn8fqbqxN-18" vertex="1">
          <mxGeometry x="22" width="141" height="26" as="geometry" />
        </mxCell>
        <mxCell id="IKeYPCFc28aPn8fqbqxN-19" value="" style="group" parent="1" vertex="1" connectable="0">
          <mxGeometry x="49" y="76" width="156" height="90" as="geometry" />
        </mxCell>
        <mxCell id="IKeYPCFc28aPn8fqbqxN-1" value="" style="shape=parallelogram;perimeter=parallelogramPerimeter;whiteSpace=wrap;html=1;fixedSize=1;verticalAlign=top;" parent="IKeYPCFc28aPn8fqbqxN-19" vertex="1">
          <mxGeometry x="-19" y="26" width="175" height="64" as="geometry" />
        </mxCell>
        <mxCell id="IKeYPCFc28aPn8fqbqxN-16" value="Permissions" style="text;html=1;align=center;verticalAlign=middle;resizable=0;points=[];autosize=1;strokeColor=none;fillColor=none;" parent="IKeYPCFc28aPn8fqbqxN-19" vertex="1">
          <mxGeometry x="27" y="5.5" width="83" height="26" as="geometry" />
        </mxCell>
        <mxCell id="IKeYPCFc28aPn8fqbqxN-30" value="" style="endArrow=classic;html=1;rounded=0;entryX=0.5;entryY=0;entryDx=0;entryDy=0;exitX=0.5;exitY=1;exitDx=0;exitDy=0;" parent="1" source="GP17z3KrqyDmhMHzSGXm-1" target="IKeYPCFc28aPn8fqbqxN-3" edge="1">
          <mxGeometry relative="1" as="geometry">
            <mxPoint x="500" y="149" as="sourcePoint" />
            <mxPoint x="991" y="325" as="targetPoint" />
          </mxGeometry>
        </mxCell>
        <mxCell id="IKeYPCFc28aPn8fqbqxN-31" value="3rd party Users Authentication" style="edgeLabel;resizable=0;html=1;align=center;verticalAlign=middle;" parent="IKeYPCFc28aPn8fqbqxN-30" connectable="0" vertex="1">
          <mxGeometry relative="1" as="geometry" />
        </mxCell>
        <mxCell id="GP17z3KrqyDmhMHzSGXm-1" value="" style="shape=actor;whiteSpace=wrap;html=1;fillColor=#fad7ac;strokeColor=#b46504;" parent="1" vertex="1">
          <mxGeometry x="-18" y="-84.5" width="40" height="60" as="geometry" />
        </mxCell>
        <mxCell id="GP17z3KrqyDmhMHzSGXm-3" value="" style="endArrow=classic;startArrow=classic;html=1;rounded=0;entryX=0.5;entryY=1;entryDx=0;entryDy=0;exitX=0;exitY=0.5;exitDx=0;exitDy=0;" parent="1" source="IKeYPCFc28aPn8fqbqxN-1" target="IKeYPCFc28aPn8fqbqxN-3" edge="1">
          <mxGeometry width="50" height="50" relative="1" as="geometry">
            <mxPoint x="80" y="134" as="sourcePoint" />
            <mxPoint x="-34" y="116" as="targetPoint" />
            <Array as="points">
              <mxPoint x="2" y="134" />
            </Array>
          </mxGeometry>
        </mxCell>
        <mxCell id="GP17z3KrqyDmhMHzSGXm-4" value="Email Provider:Sendgrid" style="html=1;whiteSpace=wrap;container=1;recursiveResize=0;collapsible=0;fillColor=#fff2cc;strokeColor=#d6b656;" parent="1" vertex="1">
          <mxGeometry x="344" y="279" width="202" height="32.5" as="geometry" />
        </mxCell>
        <mxCell id="GP17z3KrqyDmhMHzSGXm-5" value="" style="triangle;html=1;whiteSpace=wrap;" parent="GP17z3KrqyDmhMHzSGXm-4" vertex="1">
          <mxGeometry x="11" y="8" width="13" height="18" as="geometry" />
        </mxCell>
        <mxCell id="GP17z3KrqyDmhMHzSGXm-57" style="edgeStyle=orthogonalEdgeStyle;rounded=0;orthogonalLoop=1;jettySize=auto;html=1;entryX=1;entryY=0.25;entryDx=0;entryDy=0;" parent="1" source="GP17z3KrqyDmhMHzSGXm-55" target="GP17z3KrqyDmhMHzSGXm-17" edge="1">
          <mxGeometry relative="1" as="geometry" />
        </mxCell>
        <mxCell id="GP17z3KrqyDmhMHzSGXm-55" value="Domains managed via Cloudflare domains" style="ellipse;shape=doubleEllipse;whiteSpace=wrap;html=1;fillColor=#e1d5e7;strokeColor=#9673a6;" parent="1" vertex="1">
          <mxGeometry x="333" y="199" width="216" height="52.5" as="geometry" />
        </mxCell>
        <mxCell id="GP17z3KrqyDmhMHzSGXm-72" value="" style="endArrow=classic;startArrow=classic;html=1;rounded=0;entryX=0.44;entryY=1.016;entryDx=0;entryDy=0;entryPerimeter=0;exitX=0.468;exitY=0.003;exitDx=0;exitDy=0;exitPerimeter=0;" parent="1" source="IKeYPCFc28aPn8fqbqxN-6" target="IKeYPCFc28aPn8fqbqxN-1" edge="1">
          <mxGeometry width="50" height="50" relative="1" as="geometry">
            <mxPoint x="94" y="257" as="sourcePoint" />
            <mxPoint x="144" y="207" as="targetPoint" />
          </mxGeometry>
        </mxCell>
        <mxCell id="GP17z3KrqyDmhMHzSGXm-73" value="&lt;div style=&quot;&quot;&gt;&lt;span style=&quot;background-color: initial;&quot;&gt;&lt;b&gt;&lt;u&gt;Other 3rd Party Plugins:&lt;/u&gt;&lt;/b&gt;&lt;/span&gt;&lt;/div&gt;&lt;div&gt;&lt;br&gt;&lt;/div&gt;&lt;div&gt;Radix Icon Pack&lt;/div&gt;&lt;div&gt;Tailwind&lt;/div&gt;&lt;div&gt;Zod&lt;/div&gt;&lt;div&gt;PRISMA ORM&lt;br&gt;&lt;div&gt;&lt;br&gt;&lt;/div&gt;&lt;/div&gt;" style="html=1;whiteSpace=wrap;container=1;recursiveResize=0;collapsible=0;align=left;fillColor=#ffe6cc;strokeColor=#d79b00;" parent="1" vertex="1">
          <mxGeometry x="344" y="323" width="264" height="161.25" as="geometry" />
        </mxCell>
        <mxCell id="GP17z3KrqyDmhMHzSGXm-74" value="" style="triangle;html=1;whiteSpace=wrap;" parent="GP17z3KrqyDmhMHzSGXm-73" vertex="1">
          <mxGeometry x="11" y="8" width="13" height="18" as="geometry" />
        </mxCell>
        <mxCell id="GP17z3KrqyDmhMHzSGXm-83" value="PRISMA ORM&amp;nbsp;" style="ellipse;shape=cloud;whiteSpace=wrap;html=1;" parent="1" vertex="1">
          <mxGeometry x="-250" y="205" width="144" height="116.5" as="geometry" />
        </mxCell>
        <mxCell id="GP17z3KrqyDmhMHzSGXm-78" value="API env held on Vercel" style="endArrow=classic;startArrow=classic;html=1;rounded=0;exitX=1;exitY=0.5;exitDx=0;exitDy=0;" parent="1" edge="1">
          <mxGeometry width="50" height="50" relative="1" as="geometry">
            <mxPoint x="-269.5" y="279.5" as="sourcePoint" />
            <mxPoint x="-83" y="278" as="targetPoint" />
          </mxGeometry>
        </mxCell>
        <mxCell id="GP17z3KrqyDmhMHzSGXm-85" value="&lt;font style=&quot;font-size: 9px;&quot;&gt;Export XL&lt;/font&gt;" style="swimlane;fontStyle=0;childLayout=stackLayout;horizontal=1;startSize=30;horizontalStack=0;resizeParent=1;resizeParentMax=0;resizeLast=0;collapsible=1;marginBottom=0;whiteSpace=wrap;html=1;" parent="1" vertex="1">
          <mxGeometry x="-272" y="101" width="111" height="84" as="geometry" />
        </mxCell>
        <mxCell id="GP17z3KrqyDmhMHzSGXm-86" value="&lt;font style=&quot;font-size: 8px;&quot;&gt;ticket 1&lt;/font&gt;" style="text;strokeColor=none;fillColor=none;align=left;verticalAlign=middle;spacingLeft=4;spacingRight=4;overflow=hidden;points=[[0,0.5],[1,0.5]];portConstraint=eastwest;rotatable=0;whiteSpace=wrap;html=1;" parent="GP17z3KrqyDmhMHzSGXm-85" vertex="1">
          <mxGeometry y="30" width="111" height="20" as="geometry" />
        </mxCell>
        <mxCell id="GP17z3KrqyDmhMHzSGXm-87" value="&lt;font style=&quot;font-size: 8px;&quot;&gt;ticket 2&lt;/font&gt;" style="text;strokeColor=none;fillColor=none;align=left;verticalAlign=middle;spacingLeft=4;spacingRight=4;overflow=hidden;points=[[0,0.5],[1,0.5]];portConstraint=eastwest;rotatable=0;whiteSpace=wrap;html=1;" parent="GP17z3KrqyDmhMHzSGXm-85" vertex="1">
          <mxGeometry y="50" width="111" height="17" as="geometry" />
        </mxCell>
        <mxCell id="GP17z3KrqyDmhMHzSGXm-88" value="&lt;font style=&quot;font-size: 8px;&quot;&gt;ticket 3&lt;/font&gt;" style="text;strokeColor=none;fillColor=none;align=left;verticalAlign=middle;spacingLeft=4;spacingRight=4;overflow=hidden;points=[[0,0.5],[1,0.5]];portConstraint=eastwest;rotatable=0;whiteSpace=wrap;html=1;" parent="GP17z3KrqyDmhMHzSGXm-85" vertex="1">
          <mxGeometry y="67" width="111" height="17" as="geometry" />
        </mxCell>
        <mxCell id="GP17z3KrqyDmhMHzSGXm-89" value="" style="html=1;shadow=0;dashed=0;align=center;verticalAlign=middle;shape=mxgraph.arrows2.bendArrow;dy=15;dx=38;notch=0;arrowHead=56;rounded=1;direction=east;flipV=0;flipH=1;" parent="1" vertex="1">
          <mxGeometry x="-159" y="112" width="115" height="71" as="geometry" />
        </mxCell>
        <mxCell id="6fnGmufJVTfP30bPbr0C-1" value="CHEMCHECK" style="text;html=1;align=center;verticalAlign=middle;resizable=0;points=[];autosize=1;strokeColor=none;fillColor=none;" parent="1" vertex="1">
          <mxGeometry x="-608" y="18" width="95" height="26" as="geometry" />
        </mxCell>
      </root>
    </mxGraphModel>
  </diagram>
</mxfile>
